<svg xmlns="http://www.w3.org/2000/svg" width="1200" height="800" viewBox="0 0 1200 800" fill="none">
<defs>
  <linearGradient id="bg" x1="0" y1="0" x2="1" y2="1">
    <stop offset="0%" stop-color="#07111f"/>
    <stop offset="100%" stop-color="#0c1a2f"/>
  </linearGradient>
  <linearGradient id="accent" x1="0" y1="0" x2="1" y2="1">
    <stop offset="0%" stop-color="#15b8ff"/>
    <stop offset="100%" stop-color="#2d6bff"/>
  </linearGradient>
</defs>
<rect width="1200" height="800" rx="36" fill="url(#bg)"/>
<circle cx="1030" cy="130" r="120" fill="#15b8ff" opacity="0.18"/>
<rect x="70" y="60" width="1060" height="680" rx="30" fill="rgba(255,255,255,0.04)" stroke="rgba(255,255,255,0.14)"/>
<rect x="70" y="60" width="1060" height="74" rx="30" fill="rgba(255,255,255,0.04)"/>
<circle cx="112" cy="97" r="10" fill="rgba(255,255,255,0.25)"/>
<circle cx="144" cy="97" r="10" fill="rgba(255,255,255,0.14)"/>
<circle cx="176" cy="97" r="10" fill="rgba(255,255,255,0.14)"/>
<rect x="120" y="188" width="150" height="32" rx="16" fill="url(#accent)" opacity="0.92"/>
<rect x="120" y="254" width="420" height="48" rx="18" fill="rgba(255,255,255,0.94)"/>
<rect x="120" y="316" width="350" height="48" rx="18" fill="rgba(255,255,255,0.94)" opacity="0.94"/>
<rect x="120" y="396" width="420" height="18" rx="9" fill="rgba(255,255,255,0.18)"/>
<rect x="120" y="426" width="370" height="18" rx="9" fill="rgba(255,255,255,0.13)"/>
<rect x="120" y="470" width="220" height="58" rx="16" fill="url(#accent)"/>
<rect x="700" y="188" width="320" height="390" rx="30" fill="rgba(255,255,255,0.07)" stroke="rgba(255,255,255,0.10)"/>
<rect x="740" y="246" width="210" height="24" rx="12" fill="url(#accent)"/>
<rect x="740" y="294" width="210" height="18" rx="9" fill="rgba(255,255,255,0.16)"/>
<rect x="740" y="326" width="180" height="18" rx="9" fill="rgba(255,255,255,0.12)"/>
<rect x="740" y="372" width="150" height="120" rx="20" fill="url(#accent)" opacity="0.84"/>
<rect x="120" y="620" width="180" height="60" rx="18" fill="rgba(255,255,255,0.06)" stroke="rgba(255,255,255,0.10)"/>
<rect x="326" y="620" width="180" height="60" rx="18" fill="rgba(255,255,255,0.06)" stroke="rgba(255,255,255,0.10)"/>
<rect x="532" y="620" width="180" height="60" rx="18" fill="rgba(255,255,255,0.06)" stroke="rgba(255,255,255,0.10)"/>
<text x="120" y="722" fill="rgba(255,255,255,0.82)" font-size="38" font-family="Arial, Helvetica, sans-serif" font-weight="700">Consultoria</text>
<text x="120" y="112" fill="rgba(255,255,255,0.86)" font-size="24" font-family="Arial, Helvetica, sans-serif" font-weight="700">Prévia do modelo</text>
</svg>